<svg xmlns="http://www.w3.org/2000/svg" width="384" height="672" viewBox="0 0 384 672" shape-rendering="geometricPrecision">
<rect width="100%" height="100%" fill="none"/>
<g transform="translate(0,0)"><ellipse cx="48" cy="78" rx="24" ry="8" fill="#080c0a" opacity=".35"/><path d="M48 18 L67 56 L58 75 L38 75 L29 56 Z" fill="#1f5733" stroke="#080c0a" stroke-width="3"/><circle cx="48" cy="34" r="10" fill="#bda675" stroke="#080c0a" stroke-width="2"/><path d="M26 55 L70 42" stroke="#9eeb5c" stroke-width="5" stroke-linecap="round"/><text x="48" y="91" text-anchor="middle" font-family="monospace" font-size="8" fill="#9eeb5c">idle</text></g>
<g transform="translate(96,0)"><ellipse cx="48" cy="78" rx="24" ry="8" fill="#080c0a" opacity=".35"/><path d="M48 18 L67 56 L58 75 L38 75 L29 56 Z" fill="#1f5733" stroke="#080c0a" stroke-width="3"/><circle cx="48" cy="34" r="10" fill="#bda675" stroke="#080c0a" stroke-width="2"/><path d="M26 55 L70 42" stroke="#9eeb5c" stroke-width="5" stroke-linecap="round"/><text x="48" y="91" text-anchor="middle" font-family="monospace" font-size="8" fill="#9eeb5c">idle</text></g>
<g transform="translate(192,0)"><ellipse cx="48" cy="78" rx="24" ry="8" fill="#080c0a" opacity=".35"/><path d="M48 18 L67 56 L58 75 L38 75 L29 56 Z" fill="#1f5733" stroke="#080c0a" stroke-width="3"/><circle cx="48" cy="34" r="10" fill="#bda675" stroke="#080c0a" stroke-width="2"/><path d="M26 55 L70 42" stroke="#9eeb5c" stroke-width="5" stroke-linecap="round"/><text x="48" y="91" text-anchor="middle" font-family="monospace" font-size="8" fill="#9eeb5c">idle</text></g>
<g transform="translate(288,0)"><ellipse cx="48" cy="78" rx="24" ry="8" fill="#080c0a" opacity=".35"/><path d="M48 18 L67 56 L58 75 L38 75 L29 56 Z" fill="#1f5733" stroke="#080c0a" stroke-width="3"/><circle cx="48" cy="34" r="10" fill="#bda675" stroke="#080c0a" stroke-width="2"/><path d="M26 55 L70 42" stroke="#9eeb5c" stroke-width="5" stroke-linecap="round"/><text x="48" y="91" text-anchor="middle" font-family="monospace" font-size="8" fill="#9eeb5c">idle</text></g>
<g transform="translate(0,96)"><ellipse cx="48" cy="78" rx="24" ry="8" fill="#080c0a" opacity=".35"/><path d="M48 18 L67 56 L58 75 L38 75 L29 56 Z" fill="#1f5733" stroke="#080c0a" stroke-width="3"/><circle cx="48" cy="34" r="10" fill="#bda675" stroke="#080c0a" stroke-width="2"/><path d="M26 55 L70 42" stroke="#9eeb5c" stroke-width="5" stroke-linecap="round"/><text x="48" y="91" text-anchor="middle" font-family="monospace" font-size="8" fill="#9eeb5c">walk</text></g>
<g transform="translate(96,96)"><ellipse cx="48" cy="78" rx="24" ry="8" fill="#080c0a" opacity=".35"/><path d="M48 18 L67 56 L58 75 L38 75 L29 56 Z" fill="#1f5733" stroke="#080c0a" stroke-width="3"/><circle cx="48" cy="34" r="10" fill="#bda675" stroke="#080c0a" stroke-width="2"/><path d="M26 55 L70 42" stroke="#9eeb5c" stroke-width="5" stroke-linecap="round"/><text x="48" y="91" text-anchor="middle" font-family="monospace" font-size="8" fill="#9eeb5c">walk</text></g>
<g transform="translate(192,96)"><ellipse cx="48" cy="78" rx="24" ry="8" fill="#080c0a" opacity=".35"/><path d="M48 18 L67 56 L58 75 L38 75 L29 56 Z" fill="#1f5733" stroke="#080c0a" stroke-width="3"/><circle cx="48" cy="34" r="10" fill="#bda675" stroke="#080c0a" stroke-width="2"/><path d="M26 55 L70 42" stroke="#9eeb5c" stroke-width="5" stroke-linecap="round"/><text x="48" y="91" text-anchor="middle" font-family="monospace" font-size="8" fill="#9eeb5c">walk</text></g>
<g transform="translate(288,96)"><ellipse cx="48" cy="78" rx="24" ry="8" fill="#080c0a" opacity=".35"/><path d="M48 18 L67 56 L58 75 L38 75 L29 56 Z" fill="#1f5733" stroke="#080c0a" stroke-width="3"/><circle cx="48" cy="34" r="10" fill="#bda675" stroke="#080c0a" stroke-width="2"/><path d="M26 55 L70 42" stroke="#9eeb5c" stroke-width="5" stroke-linecap="round"/><text x="48" y="91" text-anchor="middle" font-family="monospace" font-size="8" fill="#9eeb5c">walk</text></g>
<g transform="translate(0,192)"><ellipse cx="48" cy="78" rx="24" ry="8" fill="#080c0a" opacity=".35"/><path d="M48 18 L67 56 L58 75 L38 75 L29 56 Z" fill="#1f5733" stroke="#080c0a" stroke-width="3"/><circle cx="48" cy="34" r="10" fill="#bda675" stroke="#080c0a" stroke-width="2"/><path d="M26 55 L70 42" stroke="#9eeb5c" stroke-width="5" stroke-linecap="round"/><text x="48" y="91" text-anchor="middle" font-family="monospace" font-size="8" fill="#9eeb5c">attack</text></g>
<g transform="translate(96,192)"><ellipse cx="48" cy="78" rx="24" ry="8" fill="#080c0a" opacity=".35"/><path d="M48 18 L67 56 L58 75 L38 75 L29 56 Z" fill="#1f5733" stroke="#080c0a" stroke-width="3"/><circle cx="48" cy="34" r="10" fill="#bda675" stroke="#080c0a" stroke-width="2"/><path d="M26 55 L70 42" stroke="#9eeb5c" stroke-width="5" stroke-linecap="round"/><text x="48" y="91" text-anchor="middle" font-family="monospace" font-size="8" fill="#9eeb5c">attack</text></g>
<g transform="translate(192,192)"><ellipse cx="48" cy="78" rx="24" ry="8" fill="#080c0a" opacity=".35"/><path d="M48 18 L67 56 L58 75 L38 75 L29 56 Z" fill="#1f5733" stroke="#080c0a" stroke-width="3"/><circle cx="48" cy="34" r="10" fill="#bda675" stroke="#080c0a" stroke-width="2"/><path d="M26 55 L70 42" stroke="#9eeb5c" stroke-width="5" stroke-linecap="round"/><text x="48" y="91" text-anchor="middle" font-family="monospace" font-size="8" fill="#9eeb5c">attack</text></g>
<g transform="translate(288,192)"><ellipse cx="48" cy="78" rx="24" ry="8" fill="#080c0a" opacity=".35"/><path d="M48 18 L67 56 L58 75 L38 75 L29 56 Z" fill="#1f5733" stroke="#080c0a" stroke-width="3"/><circle cx="48" cy="34" r="10" fill="#bda675" stroke="#080c0a" stroke-width="2"/><path d="M26 55 L70 42" stroke="#9eeb5c" stroke-width="5" stroke-linecap="round"/><text x="48" y="91" text-anchor="middle" font-family="monospace" font-size="8" fill="#9eeb5c">attack</text></g>
<g transform="translate(0,288)"><ellipse cx="48" cy="78" rx="24" ry="8" fill="#080c0a" opacity=".35"/><path d="M48 18 L67 56 L58 75 L38 75 L29 56 Z" fill="#1f5733" stroke="#080c0a" stroke-width="3"/><circle cx="48" cy="34" r="10" fill="#bda675" stroke="#080c0a" stroke-width="2"/><path d="M26 55 L70 42" stroke="#9eeb5c" stroke-width="5" stroke-linecap="round"/><text x="48" y="91" text-anchor="middle" font-family="monospace" font-size="8" fill="#9eeb5c">hit</text></g>
<g transform="translate(96,288)"><ellipse cx="48" cy="78" rx="24" ry="8" fill="#080c0a" opacity=".35"/><path d="M48 18 L67 56 L58 75 L38 75 L29 56 Z" fill="#1f5733" stroke="#080c0a" stroke-width="3"/><circle cx="48" cy="34" r="10" fill="#bda675" stroke="#080c0a" stroke-width="2"/><path d="M26 55 L70 42" stroke="#9eeb5c" stroke-width="5" stroke-linecap="round"/><text x="48" y="91" text-anchor="middle" font-family="monospace" font-size="8" fill="#9eeb5c">hit</text></g>
<g transform="translate(192,288)"><ellipse cx="48" cy="78" rx="24" ry="8" fill="#080c0a" opacity=".35"/><path d="M48 18 L67 56 L58 75 L38 75 L29 56 Z" fill="#1f5733" stroke="#080c0a" stroke-width="3"/><circle cx="48" cy="34" r="10" fill="#bda675" stroke="#080c0a" stroke-width="2"/><path d="M26 55 L70 42" stroke="#9eeb5c" stroke-width="5" stroke-linecap="round"/><text x="48" y="91" text-anchor="middle" font-family="monospace" font-size="8" fill="#9eeb5c">hit</text></g>
<g transform="translate(288,288)"><ellipse cx="48" cy="78" rx="24" ry="8" fill="#080c0a" opacity=".35"/><path d="M48 18 L67 56 L58 75 L38 75 L29 56 Z" fill="#1f5733" stroke="#080c0a" stroke-width="3"/><circle cx="48" cy="34" r="10" fill="#bda675" stroke="#080c0a" stroke-width="2"/><path d="M26 55 L70 42" stroke="#9eeb5c" stroke-width="5" stroke-linecap="round"/><text x="48" y="91" text-anchor="middle" font-family="monospace" font-size="8" fill="#9eeb5c">hit</text></g>
<g transform="translate(0,384)"><ellipse cx="48" cy="78" rx="24" ry="8" fill="#080c0a" opacity=".35"/><path d="M48 18 L67 56 L58 75 L38 75 L29 56 Z" fill="#1f5733" stroke="#080c0a" stroke-width="3"/><circle cx="48" cy="34" r="10" fill="#bda675" stroke="#080c0a" stroke-width="2"/><path d="M26 55 L70 42" stroke="#9eeb5c" stroke-width="5" stroke-linecap="round"/><text x="48" y="91" text-anchor="middle" font-family="monospace" font-size="8" fill="#9eeb5c">death</text></g>
<g transform="translate(96,384)"><ellipse cx="48" cy="78" rx="24" ry="8" fill="#080c0a" opacity=".35"/><path d="M48 18 L67 56 L58 75 L38 75 L29 56 Z" fill="#1f5733" stroke="#080c0a" stroke-width="3"/><circle cx="48" cy="34" r="10" fill="#bda675" stroke="#080c0a" stroke-width="2"/><path d="M26 55 L70 42" stroke="#9eeb5c" stroke-width="5" stroke-linecap="round"/><text x="48" y="91" text-anchor="middle" font-family="monospace" font-size="8" fill="#9eeb5c">death</text></g>
<g transform="translate(192,384)"><ellipse cx="48" cy="78" rx="24" ry="8" fill="#080c0a" opacity=".35"/><path d="M48 18 L67 56 L58 75 L38 75 L29 56 Z" fill="#1f5733" stroke="#080c0a" stroke-width="3"/><circle cx="48" cy="34" r="10" fill="#bda675" stroke="#080c0a" stroke-width="2"/><path d="M26 55 L70 42" stroke="#9eeb5c" stroke-width="5" stroke-linecap="round"/><text x="48" y="91" text-anchor="middle" font-family="monospace" font-size="8" fill="#9eeb5c">death</text></g>
<g transform="translate(288,384)"><ellipse cx="48" cy="78" rx="24" ry="8" fill="#080c0a" opacity=".35"/><path d="M48 18 L67 56 L58 75 L38 75 L29 56 Z" fill="#1f5733" stroke="#080c0a" stroke-width="3"/><circle cx="48" cy="34" r="10" fill="#bda675" stroke="#080c0a" stroke-width="2"/><path d="M26 55 L70 42" stroke="#9eeb5c" stroke-width="5" stroke-linecap="round"/><text x="48" y="91" text-anchor="middle" font-family="monospace" font-size="8" fill="#9eeb5c">death</text></g>
<g transform="translate(0,480)"><ellipse cx="48" cy="78" rx="24" ry="8" fill="#080c0a" opacity=".35"/><path d="M48 18 L67 56 L58 75 L38 75 L29 56 Z" fill="#1f5733" stroke="#080c0a" stroke-width="3"/><circle cx="48" cy="34" r="10" fill="#bda675" stroke="#080c0a" stroke-width="2"/><path d="M26 55 L70 42" stroke="#9eeb5c" stroke-width="5" stroke-linecap="round"/><text x="48" y="91" text-anchor="middle" font-family="monospace" font-size="8" fill="#9eeb5c">super</text></g>
<g transform="translate(96,480)"><ellipse cx="48" cy="78" rx="24" ry="8" fill="#080c0a" opacity=".35"/><path d="M48 18 L67 56 L58 75 L38 75 L29 56 Z" fill="#1f5733" stroke="#080c0a" stroke-width="3"/><circle cx="48" cy="34" r="10" fill="#bda675" stroke="#080c0a" stroke-width="2"/><path d="M26 55 L70 42" stroke="#9eeb5c" stroke-width="5" stroke-linecap="round"/><text x="48" y="91" text-anchor="middle" font-family="monospace" font-size="8" fill="#9eeb5c">super</text></g>
<g transform="translate(192,480)"><ellipse cx="48" cy="78" rx="24" ry="8" fill="#080c0a" opacity=".35"/><path d="M48 18 L67 56 L58 75 L38 75 L29 56 Z" fill="#1f5733" stroke="#080c0a" stroke-width="3"/><circle cx="48" cy="34" r="10" fill="#bda675" stroke="#080c0a" stroke-width="2"/><path d="M26 55 L70 42" stroke="#9eeb5c" stroke-width="5" stroke-linecap="round"/><text x="48" y="91" text-anchor="middle" font-family="monospace" font-size="8" fill="#9eeb5c">super</text></g>
<g transform="translate(288,480)"><ellipse cx="48" cy="78" rx="24" ry="8" fill="#080c0a" opacity=".35"/><path d="M48 18 L67 56 L58 75 L38 75 L29 56 Z" fill="#1f5733" stroke="#080c0a" stroke-width="3"/><circle cx="48" cy="34" r="10" fill="#bda675" stroke="#080c0a" stroke-width="2"/><path d="M26 55 L70 42" stroke="#9eeb5c" stroke-width="5" stroke-linecap="round"/><text x="48" y="91" text-anchor="middle" font-family="monospace" font-size="8" fill="#9eeb5c">super</text></g>
<g transform="translate(0,576)"><ellipse cx="48" cy="78" rx="24" ry="8" fill="#080c0a" opacity=".35"/><path d="M48 18 L67 56 L58 75 L38 75 L29 56 Z" fill="#1f5733" stroke="#080c0a" stroke-width="3"/><circle cx="48" cy="34" r="10" fill="#bda675" stroke="#080c0a" stroke-width="2"/><path d="M26 55 L70 42" stroke="#9eeb5c" stroke-width="5" stroke-linecap="round"/><text x="48" y="91" text-anchor="middle" font-family="monospace" font-size="8" fill="#9eeb5c">reload</text></g>
<g transform="translate(96,576)"><ellipse cx="48" cy="78" rx="24" ry="8" fill="#080c0a" opacity=".35"/><path d="M48 18 L67 56 L58 75 L38 75 L29 56 Z" fill="#1f5733" stroke="#080c0a" stroke-width="3"/><circle cx="48" cy="34" r="10" fill="#bda675" stroke="#080c0a" stroke-width="2"/><path d="M26 55 L70 42" stroke="#9eeb5c" stroke-width="5" stroke-linecap="round"/><text x="48" y="91" text-anchor="middle" font-family="monospace" font-size="8" fill="#9eeb5c">reload</text></g>
<g transform="translate(192,576)"><ellipse cx="48" cy="78" rx="24" ry="8" fill="#080c0a" opacity=".35"/><path d="M48 18 L67 56 L58 75 L38 75 L29 56 Z" fill="#1f5733" stroke="#080c0a" stroke-width="3"/><circle cx="48" cy="34" r="10" fill="#bda675" stroke="#080c0a" stroke-width="2"/><path d="M26 55 L70 42" stroke="#9eeb5c" stroke-width="5" stroke-linecap="round"/><text x="48" y="91" text-anchor="middle" font-family="monospace" font-size="8" fill="#9eeb5c">reload</text></g>
<g transform="translate(288,576)"><ellipse cx="48" cy="78" rx="24" ry="8" fill="#080c0a" opacity=".35"/><path d="M48 18 L67 56 L58 75 L38 75 L29 56 Z" fill="#1f5733" stroke="#080c0a" stroke-width="3"/><circle cx="48" cy="34" r="10" fill="#bda675" stroke="#080c0a" stroke-width="2"/><path d="M26 55 L70 42" stroke="#9eeb5c" stroke-width="5" stroke-linecap="round"/><text x="48" y="91" text-anchor="middle" font-family="monospace" font-size="8" fill="#9eeb5c">reload</text></g>
</svg>
