<?xml version="1.0" encoding="UTF-8"?>
<svg xmlns="http://www.w3.org/2000/svg" width="160" height="120" viewBox="0 0 160 120" data-generated-by="generate_isometric_environment_assets" data-section="void_tiles" data-id="forest_cliff_edge">
  <title>void_tiles forest_cliff_edge</title>
  <ellipse cx="80" cy="88" rx="60" ry="20" fill="#142b18" opacity="0.50"/>
  <polygon points="80,15 143,51 80,86 17,51" fill="#24401d" stroke="#6e8a42" stroke-width="4"/>
  <path d="M22 53 L80 84 L138 53 L136 84 L80 114 L24 84 Z" fill="#17311f" stroke="#273829" stroke-width="4"/>
  <path d="M24 52 C43 44 55 60 72 50 C91 39 109 58 136 50" fill="none" stroke="#8ea75f" stroke-width="5" stroke-linecap="round"/>
  <path d="M45 64 L49 96 M69 78 L68 108 M92 77 L88 108 M116 64 L110 96" stroke="#2c3a2c" stroke-width="3" opacity="0.76"/>
  <path d="M42 45 L52 42 M100 45 L111 40" stroke="#9daa66" stroke-width="2" stroke-linecap="round" opacity="0.52"/>
</svg>
