<?xml version="1.0" encoding="UTF-8"?>
<svg xmlns="http://www.w3.org/2000/svg" width="160" height="120" viewBox="0 0 160 120" data-generated-by="generate_isometric_environment_assets" data-section="object_scenes" data-id="wood_bridge">
  <title>object_scenes wood_bridge</title>
  <ellipse cx="80" cy="82" rx="58" ry="18" fill="#050608" opacity="0.45"/>
  <polygon points="26,72 80,44 134,72 80,100" fill="#242a2f" stroke="#c2b071" stroke-width="3"/>
  <path d="M39 64 L54 84" stroke="#4d5b46" stroke-width="8" stroke-linecap="round"/>
  <path d="M54 64 L69 84" stroke="#4d5b46" stroke-width="8" stroke-linecap="round"/>
  <path d="M69 64 L84 84" stroke="#4d5b46" stroke-width="8" stroke-linecap="round"/>
  <path d="M84 64 L99 84" stroke="#4d5b46" stroke-width="8" stroke-linecap="round"/>
  <path d="M99 64 L114 84" stroke="#4d5b46" stroke-width="8" stroke-linecap="round"/>
  <path d="M114 64 L129 84" stroke="#4d5b46" stroke-width="8" stroke-linecap="round"/>
  <path d="M31 65 L80 91 L129 65 M31 79 L80 105 L129 79" stroke="#c2b071" stroke-width="4" stroke-linecap="round"/>
  <path d="M24 92 L80 110 L136 92" fill="none" stroke="#c2b071" stroke-width="3" stroke-linecap="round" opacity="0.75"/>
  <path d="M36 96 L80 108 L124 96" fill="none" stroke="#000000" stroke-width="2" opacity="0.35"/>
</svg>
