<?xml version="1.0" encoding="UTF-8"?>
<svg xmlns="http://www.w3.org/2000/svg" width="160" height="120" viewBox="0 0 160 120" data-generated-by="generate_isometric_environment_assets" data-section="terrain_tiles" data-id="forest_path">
  <title>terrain_tiles forest_path</title>
  <ellipse cx="80" cy="86" rx="58" ry="17" fill="#2b1a0c" opacity="0.38"/>
  <polygon points="80,16 143,53 80,90 17,53" fill="#24401d" stroke="#5d7836" stroke-width="4"/>
  <path d="M38 44 C55 38 67 46 80 53 C96 62 112 69 128 61 L81 88 L29 58 C31 52 34 48 38 44 Z" fill="#5a3f20" stroke="#7a6132" stroke-width="3"/>
  <path d="M44 51 C60 47 70 55 83 61 C96 68 109 71 122 67" fill="none" stroke="#372414" stroke-width="3" opacity="0.42"/>
  <path d="M50 63 L61 58 M75 70 L84 66 M100 58 L111 55" stroke="#917c4a" stroke-width="2" stroke-linecap="round" opacity="0.55"/>
  <path d="M31 58 C44 51 51 66 63 58" fill="none" stroke="#314d25" stroke-width="3" opacity="0.68"/>
</svg>
