<?xml version="1.0" encoding="UTF-8"?>
<svg xmlns="http://www.w3.org/2000/svg" width="160" height="120" viewBox="0 0 160 120" data-generated-by="generate_isometric_environment_assets" data-section="terrain_tiles" data-id="forest_tall_grass">
  <title>terrain_tiles forest_tall_grass</title>
  <ellipse cx="80" cy="87" rx="60" ry="18" fill="#112913" opacity="0.42"/>
  <polygon points="80,16 143,53 80,91 17,53" fill="#173015" stroke="#4f6d30" stroke-width="4"/>
  <polygon points="80,25 129,53 80,82 31,53" fill="#1e3d18" opacity="0.80"/>
  <path d="M42 66 L49 41 M54 70 L62 38 M67 73 L72 36 M83 78 L81 34 M96 72 L91 40 M111 67 L105 43 M124 60 L115 44" stroke="#6f9347" stroke-width="3" stroke-linecap="round" opacity="0.78"/>
  <path d="M48 62 L58 51 M77 70 L88 55 M103 64 L116 52" stroke="#253d19" stroke-width="5" stroke-linecap="round" opacity="0.42"/>
  <path d="M35 56 C55 46 69 61 85 49 C101 38 117 58 132 51" fill="none" stroke="#1d3c1d" stroke-width="3" opacity="0.50"/>
</svg>
