<?xml version="1.0" encoding="UTF-8"?>
<svg xmlns="http://www.w3.org/2000/svg" width="248" height="192" viewBox="0 0 160 120" data-generated-by="generate_isometric_environment_assets" data-section="object_scenes" data-id="burned_house" data-footprint-slots="5x3">
  <title>object_scenes burned_house</title>
  <ellipse cx="80" cy="82" rx="58" ry="18" fill="#050608" opacity="0.45"/>
  <polygon points="34,75 80,54 126,75 80,100" fill="#2e1711" opacity="0.95"/>
  <polygon points="40,74 80,94 80,60 40,40" fill="#703728" stroke="#0b0c0d" stroke-width="2"/>
  <polygon points="80,94 120,74 120,40 80,60" fill="#552a1f" stroke="#0b0c0d" stroke-width="2"/>
  <path d="M44 62 L76 78 M44 68 L76 84" stroke="#000000" stroke-width="2" opacity="0.16"/>
  <path d="M84 76 L116 60 M84 82 L116 66" stroke="#000000" stroke-width="2" opacity="0.16"/>
  <polygon points="33,42 80,17 127,42 80,67" fill="#3f1f17" stroke="#0b0c0d" stroke-width="3"/>
  <polygon points="47,42 80,25 113,42 80,59" fill="none" stroke="#623023" stroke-width="2" opacity="0.5"/>
  <path d="M40 44 L80 64 L120 44" fill="none" stroke="#000000" stroke-width="4" opacity="0.25"/>
  <polygon points="56,82 68,88 68,68 56,62" fill="#0a0c0c" stroke="#f08a48" stroke-width="2" stroke-opacity="0.28"/>
  <polygon points="92,78 106,71 106,59 92,66" fill="#0d1315" stroke="#f08a48" stroke-width="2" stroke-opacity="0.30"/>
  <path d="M44 42 L56 28 L66 40 L76 24 L88 42 L100 27 L114 40" fill="none" stroke="#090706" stroke-width="5" stroke-linecap="round"/>
  <path d="M58 60 L62 50 M96 56 L100 47" stroke="#090706" stroke-width="4" stroke-linecap="round" opacity="0.7"/>
  <path d="M54 72 L104 52" stroke="#1b0e0a" stroke-width="4" stroke-linecap="round" opacity="0.8"/>
</svg>
