<?xml version="1.0" encoding="UTF-8"?>
<svg xmlns="http://www.w3.org/2000/svg" width="298" height="320" viewBox="0 0 160 120" data-generated-by="generate_isometric_environment_assets" data-section="object_scenes" data-id="lab_block" data-footprint-slots="6x6">
  <title>object_scenes lab_block</title>
  <ellipse cx="80" cy="82" rx="58" ry="18" fill="#050608" opacity="0.45"/>
  <polygon points="34,75 80,54 126,75 80,100" fill="#113024" opacity="0.95"/>
  <polygon points="40,74 80,94 80,60 40,40" fill="#2a7358" stroke="#0b0c0d" stroke-width="2"/>
  <polygon points="80,94 120,74 120,40 80,60" fill="#205843" stroke="#0b0c0d" stroke-width="2"/>
  <path d="M44 62 L76 78 M44 68 L76 84" stroke="#000000" stroke-width="2" opacity="0.16"/>
  <path d="M84 76 L116 60 M84 82 L116 66" stroke="#000000" stroke-width="2" opacity="0.16"/>
  <polygon points="33,42 80,17 127,42 80,67" fill="#184132" stroke="#0b0c0d" stroke-width="3"/>
  <polygon points="47,42 80,25 113,42 80,59" fill="none" stroke="#25644d" stroke-width="2" opacity="0.5"/>
  <path d="M40 44 L80 64 L120 44" fill="none" stroke="#000000" stroke-width="4" opacity="0.25"/>
  <polygon points="56,82 68,88 68,68 56,62" fill="#0a0c0c" stroke="#c2b071" stroke-width="2" stroke-opacity="0.28"/>
  <polygon points="92,78 106,71 106,59 92,66" fill="#0d1315" stroke="#c2b071" stroke-width="2" stroke-opacity="0.30"/>
  <polygon points="60,33 68,29 74,32 66,36" fill="#2a7358" stroke="#0b0c0d" stroke-width="2"/>
  <polygon points="86,27 94,23 100,26 92,30" fill="#2a7358" stroke="#0b0c0d" stroke-width="2"/>
  <path d="M40 48 L80 68 L120 48" fill="none" stroke="#c2b071" stroke-width="2" opacity="0.45"/>
  <circle cx="108" cy="52" r="3" fill="#c2b071" opacity="0.75"/>
</svg>
