<?xml version="1.0" encoding="UTF-8"?>
<svg xmlns="http://www.w3.org/2000/svg" width="160" height="120" viewBox="0 0 160 120" data-generated-by="starter_biome_vertical_slice" data-section="object_scenes" data-id="dense_vegetation">
  <title>object_scenes dense_vegetation</title>
  <ellipse cx="80" cy="84" rx="60" ry="18" fill="#050608" opacity="0.38"/>
  <ellipse cx="52" cy="72" rx="25" ry="18" fill="#233822" stroke="#0b130b" stroke-width="3"/>
  <ellipse cx="78" cy="63" rx="31" ry="23" fill="#2f4c2b" stroke="#0b130b" stroke-width="3"/>
  <ellipse cx="105" cy="73" rx="28" ry="19" fill="#243d25" stroke="#0b130b" stroke-width="3"/>
  <ellipse cx="71" cy="82" rx="36" ry="18" fill="#375b31" stroke="#0b130b" stroke-width="3"/>
  <ellipse cx="98" cy="84" rx="28" ry="16" fill="#1f321f" stroke="#0b130b" stroke-width="3"/>
  <path d="M37 72 C50 58 64 55 76 66 M58 87 C75 69 92 65 111 78 M78 58 C91 47 106 53 120 70" fill="none" stroke="#a3b86e" stroke-width="4" stroke-linecap="round" opacity="0.72"/>
  <path d="M44 91 L80 108 L122 91" fill="none" stroke="#5d7440" stroke-width="4" stroke-linecap="round" opacity="0.76"/>
  <path d="M57 97 L80 106 L106 97" fill="none" stroke="#000000" stroke-width="2" opacity="0.32"/>
</svg>
