<?xml version="1.0" encoding="UTF-8"?>
<svg xmlns="http://www.w3.org/2000/svg" width="248" height="192" viewBox="0 0 160 120" data-generated-by="generate_top_down_environment_assets" data-section="object_scenes" data-id="lab_ruin" data-footprint-slots="5x3">
  <title>object_scenes lab_ruin</title>
  <ellipse cx="80" cy="94" rx="54" ry="13" fill="#050608" opacity="0.38"/>
  <rect x="34" y="26" width="92" height="70" rx="2" fill="#113024" opacity="0.95"/>
  <path d="M40 56 H120 V94 H40 Z" fill="#2a7358" stroke="#0b0c0d" stroke-width="2"/>
  <path d="M120 56 L126 61 V90 L120 94 Z" fill="#205843" stroke="#0b0c0d" stroke-width="2"/>
  <path d="M44 68 H116 M44 78 H116" stroke="#000000" stroke-width="2" opacity="0.16"/>
  <rect x="34" y="18" width="92" height="48" rx="3" fill="#184132" stroke="#0b0c0d" stroke-width="3"/>
  <rect x="44" y="27" width="72" height="30" fill="none" stroke="#25644d" stroke-width="2" opacity="0.5"/>
  <path d="M36 64 H124" fill="none" stroke="#000000" stroke-width="4" opacity="0.25"/>
  <rect x="55" y="72" width="16" height="22" fill="#0a0c0c" stroke="#c2b071" stroke-width="2" stroke-opacity="0.28"/>
  <rect x="91" y="70" width="18" height="12" fill="#0d1315" stroke="#c2b071" stroke-width="2" stroke-opacity="0.30"/>
  <path d="M58 18 H88 V39 H70 V52 H48 V34 H58 Z" fill="#0a0c0c" opacity="0.92"/>
  <path d="M38 44 L52 28 L66 38 L80 22 L96 36 L112 28 L123 42" fill="none" stroke="#0d0d0d" stroke-width="5" stroke-linecap="round"/>
  <path d="M52 60 L60 74 M100 52 L108 66" stroke="#050505" stroke-width="3" stroke-linecap="round"/>
</svg>
