<?xml version="1.0" encoding="UTF-8"?>
<svg xmlns="http://www.w3.org/2000/svg" width="298" height="320" viewBox="0 0 160 120" data-generated-by="generate_top_down_environment_assets" data-section="object_scenes" data-id="lab_block" data-footprint-slots="6x6">
  <title>object_scenes lab_block</title>
  <ellipse cx="80" cy="94" rx="54" ry="13" fill="#050608" opacity="0.38"/>
  <rect x="34" y="26" width="92" height="70" rx="2" fill="#113024" opacity="0.95"/>
  <path d="M40 56 H120 V94 H40 Z" fill="#2a7358" stroke="#0b0c0d" stroke-width="2"/>
  <path d="M120 56 L126 61 V90 L120 94 Z" fill="#205843" stroke="#0b0c0d" stroke-width="2"/>
  <path d="M44 68 H116 M44 78 H116" stroke="#000000" stroke-width="2" opacity="0.16"/>
  <rect x="34" y="18" width="92" height="48" rx="3" fill="#184132" stroke="#0b0c0d" stroke-width="3"/>
  <rect x="44" y="27" width="72" height="30" fill="none" stroke="#25644d" stroke-width="2" opacity="0.5"/>
  <path d="M36 64 H124" fill="none" stroke="#000000" stroke-width="4" opacity="0.25"/>
  <rect x="55" y="72" width="16" height="22" fill="#0a0c0c" stroke="#c2b071" stroke-width="2" stroke-opacity="0.28"/>
  <rect x="91" y="70" width="18" height="12" fill="#0d1315" stroke="#c2b071" stroke-width="2" stroke-opacity="0.30"/>
  <rect x="58" y="28" width="16" height="10" fill="#2a7358" stroke="#0b0c0d" stroke-width="2"/>
  <rect x="88" y="24" width="16" height="10" fill="#2a7358" stroke="#0b0c0d" stroke-width="2"/>
  <path d="M40 48 H120" fill="none" stroke="#c2b071" stroke-width="2" opacity="0.45"/>
  <circle cx="108" cy="52" r="3" fill="#c2b071" opacity="0.75"/>
</svg>
