<?xml version="1.0" encoding="UTF-8"?>
<svg xmlns="http://www.w3.org/2000/svg" width="160" height="120" viewBox="0 0 160 120" data-generated-by="generate_isometric_environment_assets" data-section="void_tiles" data-id="void_diagonal_north_east_south_west">
  <title>void_tiles void_diagonal_north_east_south_west</title>
  <ellipse cx="80" cy="82" rx="58" ry="18" fill="#050608" opacity="0.45"/>
  <polygon points="80,18 140,46 80,74 20,46" fill="#1b2230" stroke="#101722" stroke-width="3"/>
  <path d="M20 46 L80 74 L140 46 L140 82 L80 112 L20 82 Z" fill="#05070b" stroke="#394056" stroke-width="2"/>
  <path d="M42 57 L44 88 M62 67 L63 99 M82 74 L82 108 M102 65 L100 98 M122 56 L118 87" stroke="#394056" stroke-width="3" opacity="0.72"/>
  <path d="M24 84 C43 76 56 96 78 84 C98 73 116 91 136 81" fill="none" stroke="#6d86b8" stroke-width="4" opacity="0.28"/>
  <path d="M20 46 L140 46" fill="none" stroke="#6d86b8" stroke-width="6" stroke-linecap="round" stroke-linejoin="round"/>
  <path d="M20 46 L140 46" transform="translate(0 7)" fill="none" stroke="#020305" stroke-width="5" stroke-linecap="round" stroke-linejoin="round" opacity="0.82"/>
  <path d="M24 92 L80 110 L136 92" fill="none" stroke="#6d86b8" stroke-width="3" stroke-linecap="round" opacity="0.75"/>
  <path d="M36 96 L80 108 L124 96" fill="none" stroke="#000000" stroke-width="2" opacity="0.35"/>
</svg>
