<?xml version="1.0" encoding="UTF-8"?>
<svg xmlns="http://www.w3.org/2000/svg" width="160" height="120" viewBox="0 0 160 120" data-generated-by="generate_isometric_environment_assets" data-section="edge_tiles" data-id="forest_mountain_wall">
  <title>edge_tiles forest_mountain_wall</title>
  <ellipse cx="80" cy="90" rx="58" ry="18" fill="#202c18" opacity="0.46"/>
  <polygon points="24,58 80,28 136,58 80,88" fill="#343a31" stroke="#151915" stroke-width="4"/>
  <path d="M31 58 L80 82 L129 58 L129 86 L80 112 L31 86 Z" fill="#252a24" stroke="#10130f" stroke-width="3"/>
  <path d="M47 55 L42 81 M68 46 L64 93 M91 47 L86 94 M114 56 L108 82" stroke="#56604d" stroke-width="3" opacity="0.74"/>
  <path d="M36 72 C52 62 65 83 80 70 C96 57 111 78 126 66" fill="none" stroke="#537238" stroke-width="4" opacity="0.64"/>
  <path d="M53 78 L61 66 M91 82 L101 70" stroke="#2e1d10" stroke-width="2" stroke-linecap="round" opacity="0.55"/>
</svg>
