<?xml version="1.0" encoding="UTF-8"?>
<svg xmlns="http://www.w3.org/2000/svg" width="160" height="120" viewBox="0 0 160 120" data-generated-by="generate_isometric_environment_assets" data-section="object_scenes" data-id="sunken_wreck">
  <title>object_scenes sunken_wreck</title>
  <ellipse cx="80" cy="82" rx="58" ry="18" fill="#050608" opacity="0.45"/>
  <polygon points="36,76 78,52 124,68 86,94" fill="#242a2f" stroke="#c2b071" stroke-width="4"/>
  <polygon points="43,63 73,45 111,58 126,76 85,86 52,76" fill="#355d59" stroke="#090909" stroke-width="4"/>
  <polygon points="71,48 94,42 111,59 82,62" fill="#101416" stroke="#c2b071" stroke-width="3"/>
  <circle cx="58" cy="78" r="7" fill="#050505"/>
  <circle cx="105" cy="78" r="7" fill="#050505"/>
  <path d="M44 68 L118 75 M60 57 L96 83" stroke="#c2b071" stroke-width="3" stroke-linecap="round" opacity="0.72"/>
  <path d="M24 92 L80 110 L136 92" fill="none" stroke="#c2b071" stroke-width="3" stroke-linecap="round" opacity="0.75"/>
  <path d="M36 96 L80 108 L124 96" fill="none" stroke="#000000" stroke-width="2" opacity="0.35"/>
</svg>
