<?xml version="1.0" encoding="UTF-8"?>
<svg xmlns="http://www.w3.org/2000/svg" width="160" height="120" viewBox="0 0 160 120" data-generated-by="starter_biome_vertical_slice" data-section="object_scenes" data-id="abandoned_car">
  <title>object_scenes abandoned_car</title>
  <ellipse cx="80" cy="84" rx="56" ry="17" fill="#050608" opacity="0.42"/>
  <polygon points="32,74 75,51 128,67 88,94" fill="#20272a" stroke="#0a0d0e" stroke-width="4"/>
  <polygon points="42,61 73,44 108,55 127,72 87,85 51,75" fill="#516052" stroke="#111719" stroke-width="4"/>
  <polygon points="70,48 94,42 110,56 83,61" fill="#182022" stroke="#a9b37d" stroke-width="3"/>
  <polygon points="45,66 68,54 70,70 48,78" fill="#2b3838" opacity="0.88"/>
  <circle cx="58" cy="78" r="7" fill="#070808"/>
  <circle cx="106" cy="77" r="7" fill="#070808"/>
  <path d="M38 76 L65 82 M99 58 L124 72 M63 60 L96 84" stroke="#c2b071" stroke-width="3" stroke-linecap="round" opacity="0.75"/>
  <path d="M25 93 L80 109 L135 93" fill="none" stroke="#7b8656" stroke-width="3" stroke-linecap="round" opacity="0.78"/>
  <path d="M39 97 L80 108 L121 97" fill="none" stroke="#000000" stroke-width="2" opacity="0.35"/>
</svg>
