<?xml version="1.0" encoding="UTF-8"?>
<svg xmlns="http://www.w3.org/2000/svg" width="160" height="120" viewBox="0 0 160 120" data-generated-by="generate_isometric_environment_assets" data-section="object_scenes" data-id="chemical_barrel">
  <title>object_scenes chemical_barrel</title>
  <ellipse cx="80" cy="82" rx="58" ry="18" fill="#050608" opacity="0.45"/>
  <ellipse cx="80" cy="80" rx="24" ry="9" fill="#2e7d60" stroke="#c2b071" stroke-width="3"/>
  <path d="M56 48 C56 38 104 38 104 48 L104 80 C104 91 56 91 56 80 Z" fill="#2e7d60" stroke="#0a0a0a" stroke-width="4"/>
  <ellipse cx="80" cy="48" rx="24" ry="9" fill="#2e7d60" stroke="#c2b071" stroke-width="3"/>
  <path d="M58 61 C70 69 90 69 102 61 M58 73 C70 81 90 81 102 73" stroke="#c2b071" stroke-width="4" opacity="0.82"/>
  <path d="M74 58 L86 58 M80 52 L80 64" stroke="#0b0b0b" stroke-width="3" stroke-linecap="round"/>
  <path d="M24 92 L80 110 L136 92" fill="none" stroke="#c2b071" stroke-width="3" stroke-linecap="round" opacity="0.75"/>
  <path d="M36 96 L80 108 L124 96" fill="none" stroke="#000000" stroke-width="2" opacity="0.35"/>
</svg>
