<?xml version="1.0" encoding="UTF-8"?>
<svg xmlns="http://www.w3.org/2000/svg" width="160" height="120" viewBox="0 0 160 120" data-generated-by="generate_isometric_environment_assets" data-section="object_scenes" data-id="burned_house">
  <title>object_scenes burned_house</title>
  <ellipse cx="80" cy="82" rx="58" ry="18" fill="#050608" opacity="0.45"/>
  <polygon points="38,74 80,50 122,74 80,98" fill="#242a2f" stroke="#f08a48" stroke-width="3"/>
  <polygon points="40,42 80,20 120,42 80,64" fill="#f08a48" stroke="#0b0c0d" stroke-width="4"/>
  <polygon points="40,42 80,64 80,94 40,72" fill="#7a3c2c" stroke="#0b0c0d" stroke-width="3"/>
  <polygon points="120,42 80,64 80,94 120,72" fill="#7a3c2c" stroke="#0b0c0d" stroke-width="3" opacity="0.82"/>
  <path d="M60 73 L60 54 L72 60 L72 81 Z" fill="#090b0c" opacity="0.88"/>
  <path d="M92 63 L107 55 L107 69 L92 78 Z" fill="#11181a" stroke="#f08a48" stroke-width="2" opacity="0.92"/>
  <path d="M47 43 L57 30 L65 43 L74 25 L86 47 L99 28 L114 43" fill="none" stroke="#090706" stroke-width="6" stroke-linecap="round"/>
  <path d="M54 72 L111 49" stroke="#1b0e0a" stroke-width="5" stroke-linecap="round"/>
  <path d="M24 92 L80 110 L136 92" fill="none" stroke="#f08a48" stroke-width="3" stroke-linecap="round" opacity="0.75"/>
  <path d="M36 96 L80 108 L124 96" fill="none" stroke="#000000" stroke-width="2" opacity="0.35"/>
</svg>
