<?xml version="1.0" encoding="UTF-8"?>
<svg xmlns="http://www.w3.org/2000/svg" width="160" height="120" viewBox="0 0 160 120" data-generated-by="generate_isometric_environment_assets" data-section="object_scenes" data-id="sunken_house">
  <title>object_scenes sunken_house</title>
  <ellipse cx="80" cy="82" rx="58" ry="18" fill="#050608" opacity="0.45"/>
  <polygon points="38,74 80,50 122,74 80,98" fill="#242a2f" stroke="#c2b071" stroke-width="3"/>
  <polygon points="40,42 80,20 120,42 80,64" fill="#c2b071" stroke="#0b0c0d" stroke-width="4"/>
  <polygon points="40,42 80,64 80,94 40,72" fill="#355d59" stroke="#0b0c0d" stroke-width="3"/>
  <polygon points="120,42 80,64 80,94 120,72" fill="#355d59" stroke="#0b0c0d" stroke-width="3" opacity="0.82"/>
  <path d="M60 73 L60 54 L72 60 L72 81 Z" fill="#090b0c" opacity="0.88"/>
  <path d="M92 63 L107 55 L107 69 L92 78 Z" fill="#11181a" stroke="#c2b071" stroke-width="2" opacity="0.92"/>
  <path d="M34 84 C52 78 68 90 86 84 C105 78 121 88 138 81" fill="none" stroke="#7fc0a6" stroke-width="5" opacity="0.75"/>
  <path d="M44 44 L78 25 L121 43" stroke="#0c1010" stroke-width="5" opacity="0.65"/>
  <path d="M24 92 L80 110 L136 92" fill="none" stroke="#c2b071" stroke-width="3" stroke-linecap="round" opacity="0.75"/>
  <path d="M36 96 L80 108 L124 96" fill="none" stroke="#000000" stroke-width="2" opacity="0.35"/>
</svg>
