<?xml version="1.0" encoding="UTF-8"?>
<svg xmlns="http://www.w3.org/2000/svg" width="160" height="120" viewBox="0 0 160 120" data-generated-by="generate_isometric_environment_assets" data-section="object_scenes" data-id="dead_tree">
  <title>object_scenes dead_tree</title>
  <ellipse cx="80" cy="82" rx="58" ry="18" fill="#050608" opacity="0.45"/>
  <path d="M79 91 C76 73 78 55 86 35" stroke="#355d59" stroke-width="10" stroke-linecap="round"/>
  <path d="M84 52 L50 40 M84 56 L116 42 M81 69 L54 82 M82 46 L72 24 M88 39 L104 22" stroke="#355d59" stroke-width="5" stroke-linecap="round"/>
  <path d="M54 40 L43 33 M116 42 L128 35 M72 24 L68 15 M104 22 L116 17" stroke="#c2b071" stroke-width="3" stroke-linecap="round"/>
  <ellipse cx="80" cy="94" rx="18" ry="7" fill="#355d59" opacity="0.7"/>
  <path d="M24 92 L80 110 L136 92" fill="none" stroke="#c2b071" stroke-width="3" stroke-linecap="round" opacity="0.75"/>
  <path d="M36 96 L80 108 L124 96" fill="none" stroke="#000000" stroke-width="2" opacity="0.35"/>
</svg>
